<svg id="visual" viewBox="0 0 900 250" width="900" height="250" xmlns="http://www.w3.org/2000/svg" xmlns:xlink="http://www.w3.org/1999/xlink" version="1.1"><rect x="0" y="0" width="900" height="250" fill="#ffffff"></rect><defs><linearGradient id="grad1_0" x1="72.2%" y1="0%" x2="100%" y2="100%"><stop offset="-22%" stop-color="#8b47f1" stop-opacity="1"></stop><stop offset="122%" stop-color="#8b47f1" stop-opacity="1"></stop></linearGradient></defs><defs><linearGradient id="grad1_1" x1="72.2%" y1="0%" x2="100%" y2="100%"><stop offset="-22%" stop-color="#8b47f1" stop-opacity="1"></stop><stop offset="122%" stop-color="#a367f4" stop-opacity="1"></stop></linearGradient></defs><defs><linearGradient id="grad1_2" x1="72.2%" y1="0%" x2="100%" y2="100%"><stop offset="-22%" stop-color="#b986f7" stop-opacity="1"></stop><stop offset="122%" stop-color="#a367f4" stop-opacity="1"></stop></linearGradient></defs><defs><linearGradient id="grad1_3" x1="72.2%" y1="0%" x2="100%" y2="100%"><stop offset="-22%" stop-color="#b986f7" stop-opacity="1"></stop><stop offset="122%" stop-color="#cca4fa" stop-opacity="1"></stop></linearGradient></defs><defs><linearGradient id="grad1_4" x1="72.2%" y1="0%" x2="100%" y2="100%"><stop offset="-22%" stop-color="#dec2fc" stop-opacity="1"></stop><stop offset="122%" stop-color="#cca4fa" stop-opacity="1"></stop></linearGradient></defs><defs><linearGradient id="grad1_5" x1="72.2%" y1="0%" x2="100%" y2="100%"><stop offset="-22%" stop-color="#dec2fc" stop-opacity="1"></stop><stop offset="122%" stop-color="#efe0fe" stop-opacity="1"></stop></linearGradient></defs><defs><linearGradient id="grad1_6" x1="72.2%" y1="0%" x2="100%" y2="100%"><stop offset="-22%" stop-color="#ffffff" stop-opacity="1"></stop><stop offset="122%" stop-color="#efe0fe" stop-opacity="1"></stop></linearGradient></defs><defs><linearGradient id="grad2_0" x1="0%" y1="0%" x2="27.8%" y2="100%"><stop offset="-22%" stop-color="#8b47f1" stop-opacity="1"></stop><stop offset="122%" stop-color="#8b47f1" stop-opacity="1"></stop></linearGradient></defs><defs><linearGradient id="grad2_1" x1="0%" y1="0%" x2="27.8%" y2="100%"><stop offset="-22%" stop-color="#a367f4" stop-opacity="1"></stop><stop offset="122%" stop-color="#8b47f1" stop-opacity="1"></stop></linearGradient></defs><defs><linearGradient id="grad2_2" x1="0%" y1="0%" x2="27.8%" y2="100%"><stop offset="-22%" stop-color="#a367f4" stop-opacity="1"></stop><stop offset="122%" stop-color="#b986f7" stop-opacity="1"></stop></linearGradient></defs><defs><linearGradient id="grad2_3" x1="0%" y1="0%" x2="27.8%" y2="100%"><stop offset="-22%" stop-color="#cca4fa" stop-opacity="1"></stop><stop offset="122%" stop-color="#b986f7" stop-opacity="1"></stop></linearGradient></defs><defs><linearGradient id="grad2_4" x1="0%" y1="0%" x2="27.8%" y2="100%"><stop offset="-22%" stop-color="#cca4fa" stop-opacity="1"></stop><stop offset="122%" stop-color="#dec2fc" stop-opacity="1"></stop></linearGradient></defs><defs><linearGradient id="grad2_5" x1="0%" y1="0%" x2="27.8%" y2="100%"><stop offset="-22%" stop-color="#efe0fe" stop-opacity="1"></stop><stop offset="122%" stop-color="#dec2fc" stop-opacity="1"></stop></linearGradient></defs><defs><linearGradient id="grad2_6" x1="0%" y1="0%" x2="27.8%" y2="100%"><stop offset="-22%" stop-color="#efe0fe" stop-opacity="1"></stop><stop offset="122%" stop-color="#ffffff" stop-opacity="1"></stop></linearGradient></defs><g transform="translate(900, 0)"><path d="M0 250C-32.7 246.8 -65.4 243.6 -95.7 231C-125.9 218.3 -153.7 196.2 -169.7 169.7C-185.7 143.2 -190 112.4 -201.4 83.4C-212.8 54.4 -231.4 27.2 -250 0L0 0Z" fill="#f7f0fe"></path><path d="M0 214.3C-28 211.6 -56.1 208.8 -82 198C-107.9 187.1 -131.7 168.2 -145.5 145.5C-159.2 122.8 -162.8 96.4 -172.6 71.5C-182.4 46.6 -198.4 23.3 -214.3 0L0 0Z" fill="#e7d1fd"></path><path d="M0 178.6C-23.4 176.3 -46.7 174 -68.3 165C-89.9 155.9 -109.8 140.1 -121.2 121.2C-132.7 102.3 -135.7 80.3 -143.9 59.6C-152 38.9 -165.3 19.4 -178.6 0L0 0Z" fill="#d6b3fb"></path><path d="M0 142.9C-18.7 141 -37.4 139.2 -54.7 132C-72 124.7 -87.8 112.1 -97 97C-106.1 81.8 -108.6 64.2 -115.1 47.7C-121.6 31.1 -132.2 15.5 -142.9 0L0 0Z" fill="#c395f9"></path><path d="M0 107.1C-14 105.8 -28 104.4 -41 99C-54 93.6 -65.9 84.1 -72.7 72.7C-79.6 61.4 -81.4 48.2 -86.3 35.8C-91.2 23.3 -99.2 11.7 -107.1 0L0 0Z" fill="#ae77f6"></path><path d="M0 71.4C-9.3 70.5 -18.7 69.6 -27.3 66C-36 62.4 -43.9 56.1 -48.5 48.5C-53.1 40.9 -54.3 32.1 -57.5 23.8C-60.8 15.5 -66.1 7.8 -71.4 0L0 0Z" fill="#9857f3"></path><path d="M0 35.7C-4.7 35.3 -9.3 34.8 -13.7 33C-18 31.2 -22 28 -24.2 24.2C-26.5 20.5 -27.1 16.1 -28.8 11.9C-30.4 7.8 -33.1 3.9 -35.7 0L0 0Z" fill="#8b47f1"></path></g><g transform="translate(0, 250)"><path d="M0 -250C24.4 -226.8 48.8 -203.6 80.7 -194.9C112.7 -186.3 152.2 -192.2 176.8 -176.8C201.4 -161.3 211.1 -124.5 220.8 -91.5C230.5 -58.4 240.3 -29.2 250 0L0 0Z" fill="#f7f0fe"></path><path d="M0 -214.3C20.9 -194.4 41.8 -174.5 69.2 -167.1C96.6 -159.7 130.4 -164.8 151.5 -151.5C172.6 -138.3 180.9 -106.7 189.3 -78.4C197.6 -50.1 205.9 -25 214.3 0L0 0Z" fill="#e7d1fd"></path><path d="M0 -178.6C17.4 -162 34.9 -145.4 57.7 -139.2C80.5 -133.1 108.7 -137.3 126.3 -126.3C143.8 -115.2 150.8 -88.9 157.7 -65.3C164.7 -41.7 171.6 -20.9 178.6 0L0 0Z" fill="#d6b3fb"></path><path d="M0 -142.9C13.9 -129.6 27.9 -116.3 46.1 -111.4C64.4 -106.5 87 -109.8 101 -101C115.1 -92.2 120.6 -71.1 126.2 -52.3C131.7 -33.4 137.3 -16.7 142.9 0L0 0Z" fill="#c395f9"></path><path d="M0 -107.1C10.5 -97.2 20.9 -87.2 34.6 -83.5C48.3 -79.8 65.2 -82.4 75.8 -75.8C86.3 -69.1 90.5 -53.4 94.6 -39.2C98.8 -25 103 -12.5 107.1 0L0 0Z" fill="#ae77f6"></path><path d="M0 -71.4C7 -64.8 13.9 -58.2 23.1 -55.7C32.2 -53.2 43.5 -54.9 50.5 -50.5C57.5 -46.1 60.3 -35.6 63.1 -26.1C65.9 -16.7 68.6 -8.3 71.4 0L0 0Z" fill="#9857f3"></path><path d="M0 -35.7C3.5 -32.4 7 -29.1 11.5 -27.8C16.1 -26.6 21.7 -27.5 25.3 -25.3C28.8 -23 30.2 -17.8 31.5 -13.1C32.9 -8.3 34.3 -4.2 35.7 0L0 0Z" fill="#8b47f1"></path></g></svg>