<svg id="visual" viewBox="0 0 900 600" width="900" height="600" xmlns="http://www.w3.org/2000/svg" xmlns:xlink="http://www.w3.org/1999/xlink" version="1.1"><rect x="0" y="0" width="900" height="600" fill="#ffffff"></rect><path d="M0 411L21.5 401.8C43 392.7 86 374.3 128.8 378.3C171.7 382.3 214.3 408.7 257.2 413.2C300 417.7 343 400.3 385.8 396.7C428.7 393 471.3 403 514.2 409C557 415 600 417 642.8 416.7C685.7 416.3 728.3 413.7 771.2 406.5C814 399.3 857 387.7 878.5 381.8L900 376L900 601L878.5 601C857 601 814 601 771.2 601C728.3 601 685.7 601 642.8 601C600 601 557 601 514.2 601C471.3 601 428.7 601 385.8 601C343 601 300 601 257.2 601C214.3 601 171.7 601 128.8 601C86 601 43 601 21.5 601L0 601Z" fill="#c6c6c6"></path><path d="M0 439L21.5 432.2C43 425.3 86 411.7 128.8 404C171.7 396.3 214.3 394.7 257.2 407.3C300 420 343 447 385.8 457.3C428.7 467.7 471.3 461.3 514.2 458.3C557 455.3 600 455.7 642.8 455.8C685.7 456 728.3 456 771.2 450.3C814 444.7 857 433.3 878.5 427.7L900 422L900 601L878.5 601C857 601 814 601 771.2 601C728.3 601 685.7 601 642.8 601C600 601 557 601 514.2 601C471.3 601 428.7 601 385.8 601C343 601 300 601 257.2 601C214.3 601 171.7 601 128.8 601C86 601 43 601 21.5 601L0 601Z" fill="#a5a5a5"></path><path d="M0 498L21.5 496.8C43 495.7 86 493.3 128.8 484.3C171.7 475.3 214.3 459.7 257.2 454.8C300 450 343 456 385.8 465.3C428.7 474.7 471.3 487.3 514.2 488.7C557 490 600 480 642.8 474.3C685.7 468.7 728.3 467.3 771.2 470.3C814 473.3 857 480.7 878.5 484.3L900 488L900 601L878.5 601C857 601 814 601 771.2 601C728.3 601 685.7 601 642.8 601C600 601 557 601 514.2 601C471.3 601 428.7 601 385.8 601C343 601 300 601 257.2 601C214.3 601 171.7 601 128.8 601C86 601 43 601 21.5 601L0 601Z" fill="#858585"></path><path d="M0 527L21.5 529.2C43 531.3 86 535.7 128.8 537.5C171.7 539.3 214.3 538.7 257.2 538.8C300 539 343 540 385.8 537.7C428.7 535.3 471.3 529.7 514.2 529.3C557 529 600 534 642.8 533.5C685.7 533 728.3 527 771.2 525.2C814 523.3 857 525.7 878.5 526.8L900 528L900 601L878.5 601C857 601 814 601 771.2 601C728.3 601 685.7 601 642.8 601C600 601 557 601 514.2 601C471.3 601 428.7 601 385.8 601C343 601 300 601 257.2 601C214.3 601 171.7 601 128.8 601C86 601 43 601 21.5 601L0 601Z" fill="#676666"></path><path d="M0 541L21.5 539.7C43 538.3 86 535.7 128.8 535.5C171.7 535.3 214.3 537.7 257.2 542.7C300 547.7 343 555.3 385.8 560.8C428.7 566.3 471.3 569.7 514.2 567.8C557 566 600 559 642.8 557.7C685.7 556.3 728.3 560.7 771.2 563.2C814 565.7 857 566.3 878.5 566.7L900 567L900 601L878.5 601C857 601 814 601 771.2 601C728.3 601 685.7 601 642.8 601C600 601 557 601 514.2 601C471.3 601 428.7 601 385.8 601C343 601 300 601 257.2 601C214.3 601 171.7 601 128.8 601C86 601 43 601 21.5 601L0 601Z" fill="#4a4949"></path></svg>